<?xml version="1.0" encoding="utf-8"?>
<!-- Generator: Adobe Illustrator 18.1.1, SVG Export Plug-In . SVG Version: 6.00 Build 0)  -->
<!DOCTYPE svg PUBLIC "-//W3C//DTD SVG 1.1//EN" "http://www.w3.org/Graphics/SVG/1.1/DTD/svg11.dtd">
<svg version="1.1" id="Layer_1" xmlns="http://www.w3.org/2000/svg" xmlns:xlink="http://www.w3.org/1999/xlink" x="0px" y="0px"
	 viewBox="0 0 472 469" enable-background="new 0 0 472 469" xml:space="preserve">
<g>
	<defs>
		<rect id="SVGID_1_" x="0.1" y="0.4" width="471.1" height="468.6"/>
	</defs>
	<clipPath id="SVGID_2_">
		<use xlink:href="#SVGID_1_"  overflow="visible"/>
	</clipPath>
	<g clip-path="url(#SVGID_2_)">
		<defs>
			<rect id="SVGID_3_" width="472" height="469"/>
		</defs>
		<clipPath id="SVGID_4_">
			<use xlink:href="#SVGID_3_"  overflow="visible"/>
		</clipPath>
		<path clip-path="url(#SVGID_4_)" d="M409,124.1c-10.4,0-18.8-8.4-18.8-18.8c0-10.4,8.4-18.8,18.8-18.8c10.4,0,18.8,8.4,18.8,18.8
			C427.8,115.7,419.4,124.1,409,124.1 M409,210.3c-10.4,0-18.8-8.4-18.8-18.8c0-10.4,8.4-18.8,18.8-18.8c10.4,0,18.8,8.4,18.8,18.8
			C427.8,201.9,419.4,210.3,409,210.3 M409,296.6c-10.4,0-18.8-8.4-18.8-18.8c0-10.4,8.4-18.8,18.8-18.8c10.4,0,18.8,8.4,18.8,18.8
			C427.8,288.2,419.4,296.6,409,296.6 M409,382.8c-10.4,0-18.8-8.4-18.8-18.8c0-10.4,8.4-18.8,18.8-18.8c10.4,0,18.8,8.4,18.8,18.8
			C427.8,374.4,419.4,382.8,409,382.8 M365.6,81c-10.4,0-18.8-8.4-18.8-18.8c0-10.4,8.4-18.8,18.8-18.8c10.4,0,18.8,8.4,18.8,18.8
			C384.4,72.6,376,81,365.6,81 M365.6,167.2c-10.4,0-18.8-8.4-18.8-18.8c0-10.4,8.4-18.8,18.8-18.8c10.4,0,18.8,8.4,18.8,18.8
			C384.4,158.8,376,167.2,365.6,167.2 M365.6,253.5c-10.4,0-18.8-8.4-18.8-18.8c0-10.4,8.4-18.8,18.8-18.8
			c10.4,0,18.8,8.4,18.8,18.8C384.4,245.1,376,253.5,365.6,253.5 M365.6,339.7c-10.4,0-18.8-8.4-18.8-18.8
			c0-10.4,8.4-18.8,18.8-18.8c10.4,0,18.8,8.4,18.8,18.8C384.4,331.3,376,339.7,365.6,339.7 M365.6,425.9
			c-10.4,0-18.8-8.4-18.8-18.8c0-10.4,8.4-18.8,18.8-18.8c10.4,0,18.8,8.4,18.8,18.8C384.4,417.5,376,425.9,365.6,425.9
			 M322.3,124.1c-10.4,0-18.8-8.4-18.8-18.8c0-10.4,8.4-18.8,18.8-18.8c10.4,0,18.8,8.4,18.8,18.8
			C341,115.7,332.6,124.1,322.3,124.1 M322.3,210.3c-10.4,0-18.8-8.4-18.8-18.8c0-10.4,8.4-18.8,18.8-18.8
			c10.4,0,18.8,8.4,18.8,18.8C341,201.9,332.6,210.3,322.3,210.3 M322.3,296.6c-10.4,0-18.8-8.4-18.8-18.8
			c0-10.4,8.4-18.8,18.8-18.8c10.4,0,18.8,8.4,18.8,18.8C341,288.2,332.6,296.6,322.3,296.6 M322.3,382.8
			c-10.4,0-18.8-8.4-18.8-18.8c0-10.4,8.4-18.8,18.8-18.8c10.4,0,18.8,8.4,18.8,18.8C341,374.4,332.6,382.8,322.3,382.8 M278.9,81
			c-10.4,0-18.8-8.4-18.8-18.8c0-10.4,8.4-18.8,18.8-18.8c10.4,0,18.8,8.4,18.8,18.8C297.7,72.6,289.3,81,278.9,81 M278.9,167.2
			c-10.4,0-18.8-8.4-18.8-18.8c0-10.4,8.4-18.8,18.8-18.8c10.4,0,18.8,8.4,18.8,18.8C297.7,158.8,289.3,167.2,278.9,167.2
			 M278.9,253.5c-10.4,0-18.8-8.4-18.8-18.8c0-10.4,8.4-18.8,18.8-18.8c10.4,0,18.8,8.4,18.8,18.8
			C297.7,245.1,289.3,253.5,278.9,253.5 M278.9,339.7c-10.4,0-18.8-8.4-18.8-18.8c0-10.4,8.4-18.8,18.8-18.8
			c10.4,0,18.8,8.4,18.8,18.8C297.7,331.3,289.3,339.7,278.9,339.7 M278.9,425.9c-10.4,0-18.8-8.4-18.8-18.8
			c0-10.4,8.4-18.8,18.8-18.8c10.4,0,18.8,8.4,18.8,18.8C297.7,417.5,289.3,425.9,278.9,425.9 M235.6,37.9
			c-10.4,0-18.8-8.4-18.8-18.8c0-10.4,8.4-18.8,18.8-18.8c10.4,0,18.8,8.4,18.8,18.8C254.3,29.5,245.9,37.9,235.6,37.9 M235.6,124.1
			c-10.4,0-18.8-8.4-18.8-18.8c0-10.4,8.4-18.8,18.8-18.8c10.4,0,18.8,8.4,18.8,18.8C254.3,115.7,245.9,124.1,235.6,124.1
			 M235.6,210.3c-10.4,0-18.8-8.4-18.8-18.8c0-10.4,8.4-18.8,18.8-18.8c10.4,0,18.8,8.4,18.8,18.8
			C254.3,201.9,245.9,210.3,235.6,210.3 M235.6,296.6c-10.4,0-18.8-8.4-18.8-18.8c0-10.4,8.4-18.8,18.8-18.8
			c10.4,0,18.8,8.4,18.8,18.8C254.3,288.2,245.9,296.6,235.6,296.6 M235.6,382.8c-10.4,0-18.8-8.4-18.8-18.8
			c0-10.4,8.4-18.8,18.8-18.8c10.4,0,18.8,8.4,18.8,18.8C254.3,374.4,245.9,382.8,235.6,382.8 M235.6,469
			c-10.4,0-18.8-8.4-18.8-18.8c0-10.4,8.4-18.8,18.8-18.8c10.4,0,18.8,8.4,18.8,18.8C254.3,460.6,245.9,469,235.6,469 M192.2,81
			c-10.4,0-18.8-8.4-18.8-18.8c0-10.4,8.4-18.8,18.8-18.8c10.4,0,18.8,8.4,18.8,18.8C211,72.6,202.6,81,192.2,81 M192.2,167.2
			c-10.4,0-18.8-8.4-18.8-18.8c0-10.4,8.4-18.8,18.8-18.8c10.4,0,18.8,8.4,18.8,18.8C211,158.8,202.6,167.2,192.2,167.2
			 M192.2,253.5c-10.4,0-18.8-8.4-18.8-18.8c0-10.4,8.4-18.8,18.8-18.8c10.4,0,18.8,8.4,18.8,18.8
			C211,245.1,202.6,253.5,192.2,253.5 M192.2,339.7c-10.4,0-18.8-8.4-18.8-18.8c0-10.4,8.4-18.8,18.8-18.8
			c10.4,0,18.8,8.4,18.8,18.8C211,331.3,202.6,339.7,192.2,339.7 M192.2,425.9c-10.4,0-18.8-8.4-18.8-18.8
			c0-10.4,8.4-18.8,18.8-18.8c10.4,0,18.8,8.4,18.8,18.8C211,417.5,202.6,425.9,192.2,425.9 M148.8,124.1
			c-10.4,0-18.8-8.4-18.8-18.8c0-10.4,8.4-18.8,18.8-18.8c10.4,0,18.8,8.4,18.8,18.8C167.6,115.7,159.2,124.1,148.8,124.1
			 M148.8,210.3c-10.4,0-18.8-8.4-18.8-18.8c0-10.4,8.4-18.8,18.8-18.8c10.4,0,18.8,8.4,18.8,18.8
			C167.6,201.9,159.2,210.3,148.8,210.3 M148.8,296.6c-10.4,0-18.8-8.4-18.8-18.8c0-10.4,8.4-18.8,18.8-18.8
			c10.4,0,18.8,8.4,18.8,18.8C167.6,288.2,159.2,296.6,148.8,296.6 M148.8,382.8c-10.4,0-18.8-8.4-18.8-18.8
			c0-10.4,8.4-18.8,18.8-18.8c10.4,0,18.8,8.4,18.8,18.8C167.6,374.4,159.2,382.8,148.8,382.8 M105.5,81c-10.4,0-18.8-8.4-18.8-18.8
			c0-10.4,8.4-18.8,18.8-18.8c10.4,0,18.8,8.4,18.8,18.8C124.3,72.6,115.9,81,105.5,81 M105.5,167.2c-10.4,0-18.8-8.4-18.8-18.8
			c0-10.4,8.4-18.8,18.8-18.8c10.4,0,18.8,8.4,18.8,18.8C124.3,158.8,115.9,167.2,105.5,167.2 M105.5,253.5
			c-10.4,0-18.8-8.4-18.8-18.8c0-10.4,8.4-18.8,18.8-18.8c10.4,0,18.8,8.4,18.8,18.8C124.3,245.1,115.9,253.5,105.5,253.5
			 M105.5,339.7c-10.4,0-18.8-8.4-18.8-18.8c0-10.4,8.4-18.8,18.8-18.8c10.4,0,18.8,8.4,18.8,18.8
			C124.3,331.3,115.9,339.7,105.5,339.7 M105.5,425.9c-10.4,0-18.8-8.4-18.8-18.8c0-10.4,8.4-18.8,18.8-18.8
			c10.4,0,18.8,8.4,18.8,18.8C124.3,417.5,115.9,425.9,105.5,425.9 M62.1,124.1c-10.4,0-18.8-8.4-18.8-18.8
			c0-10.4,8.4-18.8,18.8-18.8c10.4,0,18.8,8.4,18.8,18.8C80.9,115.7,72.5,124.1,62.1,124.1 M62.1,210.3c-10.4,0-18.8-8.4-18.8-18.8
			c0-10.4,8.4-18.8,18.8-18.8c10.4,0,18.8,8.4,18.8,18.8C80.9,201.9,72.5,210.3,62.1,210.3 M62.1,296.6c-10.4,0-18.8-8.4-18.8-18.8
			c0-10.4,8.4-18.8,18.8-18.8c10.4,0,18.8,8.4,18.8,18.8C80.9,288.2,72.5,296.6,62.1,296.6 M62.1,382.8c-10.4,0-18.8-8.4-18.8-18.8
			c0-10.4,8.4-18.8,18.8-18.8c10.4,0,18.8,8.4,18.8,18.8C80.9,374.4,72.5,382.8,62.1,382.8 M18.8,253.5C8.4,253.5,0,245.1,0,234.7
			c0-10.4,8.4-18.8,18.8-18.8c10.4,0,18.8,8.4,18.8,18.8C37.5,245.1,29.1,253.5,18.8,253.5 M452.4,215.9c10.4,0,18.8,8.4,18.8,18.8
			c0,10.4-8.4,18.8-18.8,18.8c-10.4,0-18.8-8.4-18.8-18.8C433.6,224.3,442,215.9,452.4,215.9"/>
	</g>
</g>
<g>
	<defs>
		<rect id="SVGID_5_" width="472" height="469"/>
	</defs>
	<clipPath id="SVGID_6_">
		<use xlink:href="#SVGID_5_"  overflow="visible"/>
	</clipPath>
	<path clip-path="url(#SVGID_6_)" d="M235.6,172.8c-10.4,0-18.8,8.4-18.8,18.8c0,10.4,8.4,18.8,18.8,18.8c10.4,0,18.8-8.4,18.8-18.8
		C254.3,181.2,245.9,172.8,235.6,172.8"/>
	<path clip-path="url(#SVGID_6_)" d="M148.8,172.8c-10.4,0-18.8,8.4-18.8,18.8c0,10.4,8.4,18.8,18.8,18.8c10.4,0,18.8-8.4,18.8-18.8
		C167.6,181.2,159.2,172.8,148.8,172.8"/>
	<path clip-path="url(#SVGID_6_)" d="M62.1,172.8c-10.4,0-18.8,8.4-18.8,18.8c0,10.4,8.4,18.8,18.8,18.8c10.4,0,18.8-8.4,18.8-18.8
		C80.9,181.2,72.5,172.8,62.1,172.8"/>
	<path clip-path="url(#SVGID_6_)" d="M322.3,172.8c-10.4,0-18.8,8.4-18.8,18.8c0,10.4,8.4,18.8,18.8,18.8c10.4,0,18.8-8.4,18.8-18.8
		C341,181.2,332.6,172.8,322.3,172.8"/>
	<path clip-path="url(#SVGID_6_)" d="M409,172.8c-10.4,0-18.8,8.4-18.8,18.8c0,10.4,8.4,18.8,18.8,18.8c10.4,0,18.8-8.4,18.8-18.8
		C427.8,181.2,419.4,172.8,409,172.8"/>
	<path clip-path="url(#SVGID_6_)" d="M235.6,86.6c-10.4,0-18.8,8.4-18.8,18.8c0,10.4,8.4,18.8,18.8,18.8c10.4,0,18.8-8.4,18.8-18.8
		C254.3,95,245.9,86.6,235.6,86.6"/>
	<path clip-path="url(#SVGID_6_)" d="M148.8,86.6c-10.4,0-18.8,8.4-18.8,18.8c0,10.4,8.4,18.8,18.8,18.8c10.4,0,18.8-8.4,18.8-18.8
		C167.6,95,159.2,86.6,148.8,86.6"/>
	<path clip-path="url(#SVGID_6_)" d="M62.1,86.6c-10.4,0-18.8,8.4-18.8,18.8c0,10.4,8.4,18.8,18.8,18.8c10.4,0,18.8-8.4,18.8-18.8
		C80.9,95,72.5,86.6,62.1,86.6"/>
	<path clip-path="url(#SVGID_6_)" d="M322.3,86.6c-10.4,0-18.8,8.4-18.8,18.8c0,10.4,8.4,18.8,18.8,18.8c10.4,0,18.8-8.4,18.8-18.8
		C341,95,332.6,86.6,322.3,86.6"/>
	<path clip-path="url(#SVGID_6_)" d="M409,86.6c-10.4,0-18.8,8.4-18.8,18.8c0,10.4,8.4,18.8,18.8,18.8c10.4,0,18.8-8.4,18.8-18.8
		C427.8,95,419.4,86.6,409,86.6"/>
	<path clip-path="url(#SVGID_6_)" d="M235.6,0.4c-10.4,0-18.8,8.4-18.8,18.8c0,10.4,8.4,18.8,18.8,18.8c10.4,0,18.8-8.4,18.8-18.8
		C254.3,8.8,245.9,0.4,235.6,0.4"/>
	<path clip-path="url(#SVGID_6_)" d="M148.8,37.9c10.4,0,18.8-8.4,18.8-18.8c0-3.4-1-6.6-2.6-9.4c-11.9,3.7-23.3,8.4-34.3,13.9
		C132.7,31.8,140,37.9,148.8,37.9"/>
</g>
<g>
	<defs>
		<rect id="SVGID_7_" x="0.1" y="0.4" width="471.1" height="468.6"/>
	</defs>
	<clipPath id="SVGID_8_">
		<use xlink:href="#SVGID_7_"  overflow="visible"/>
	</clipPath>
	<g clip-path="url(#SVGID_8_)">
		<defs>
			<rect id="SVGID_9_" width="472" height="469"/>
		</defs>
		<clipPath id="SVGID_10_">
			<use xlink:href="#SVGID_9_"  overflow="visible"/>
		</clipPath>
		<path clip-path="url(#SVGID_10_)" d="M322.3,37.9c8.8,0,16.1-6.1,18.2-14.3c-11-5.5-22.4-10.2-34.3-13.9c-1.6,2.8-2.6,5.9-2.6,9.4
			C303.5,29.5,311.9,37.9,322.3,37.9"/>
		<path clip-path="url(#SVGID_10_)" d="M235.6,431.5c-10.4,0-18.8,8.4-18.8,18.8s8.4,18.8,18.8,18.8c10.4,0,18.8-8.4,18.8-18.8
			S245.9,431.5,235.6,431.5"/>
	</g>
</g>
<g>
	<defs>
		<rect id="SVGID_11_" width="472" height="469"/>
	</defs>
	<clipPath id="SVGID_12_">
		<use xlink:href="#SVGID_11_"  overflow="visible"/>
	</clipPath>
	<path clip-path="url(#SVGID_12_)" d="M148.8,431.5c-8.8,0-16.1,6.1-18.2,14.3c11,5.5,22.4,10.1,34.3,13.9c1.6-2.8,2.6-5.9,2.6-9.4
		C167.6,439.9,159.2,431.5,148.8,431.5"/>
	<path clip-path="url(#SVGID_12_)" d="M322.3,431.5c-10.4,0-18.8,8.4-18.8,18.8c0,3.4,1,6.6,2.6,9.4c11.9-3.7,23.3-8.4,34.3-13.9
		C338.4,437.6,331.1,431.5,322.3,431.5"/>
	<path clip-path="url(#SVGID_12_)" d="M278.9,388.3c-10.4,0-18.8,8.4-18.8,18.8c0,10.4,8.4,18.8,18.8,18.8
		c10.4,0,18.8-8.4,18.8-18.8C297.7,396.8,289.3,388.3,278.9,388.3"/>
	<path clip-path="url(#SVGID_12_)" d="M192.2,388.3c-10.4,0-18.8,8.4-18.8,18.8c0,10.4,8.4,18.8,18.8,18.8
		c10.4,0,18.8-8.4,18.8-18.8C211,396.8,202.6,388.3,192.2,388.3"/>
	<path clip-path="url(#SVGID_12_)" d="M105.5,388.3c-10.4,0-18.8,8.4-18.8,18.8c0,10.4,8.4,18.8,18.8,18.8
		c10.4,0,18.8-8.4,18.8-18.8C124.3,396.8,115.9,388.3,105.5,388.3"/>
	<path clip-path="url(#SVGID_12_)" d="M365.6,388.3c-10.4,0-18.8,8.4-18.8,18.8c0,10.4,8.4,18.8,18.8,18.8
		c10.4,0,18.8-8.4,18.8-18.8C384.4,396.8,376,388.3,365.6,388.3"/>
	<path clip-path="url(#SVGID_12_)" d="M235.6,345.2c-10.4,0-18.8,8.4-18.8,18.8c0,10.4,8.4,18.8,18.8,18.8
		c10.4,0,18.8-8.4,18.8-18.8C254.3,353.7,245.9,345.2,235.6,345.2"/>
	<path clip-path="url(#SVGID_12_)" d="M148.8,345.2c-10.4,0-18.8,8.4-18.8,18.8c0,10.4,8.4,18.8,18.8,18.8
		c10.4,0,18.8-8.4,18.8-18.8C167.6,353.7,159.2,345.2,148.8,345.2"/>
	<path clip-path="url(#SVGID_12_)" d="M62.1,345.2c-10.4,0-18.8,8.4-18.8,18.8c0,10.4,8.4,18.8,18.8,18.8c10.4,0,18.8-8.4,18.8-18.8
		C80.9,353.7,72.5,345.2,62.1,345.2"/>
	<path clip-path="url(#SVGID_12_)" d="M322.3,345.2c-10.4,0-18.8,8.4-18.8,18.8c0,10.4,8.4,18.8,18.8,18.8
		c10.4,0,18.8-8.4,18.8-18.8C341,353.7,332.6,345.2,322.3,345.2"/>
	<path clip-path="url(#SVGID_12_)" d="M409,345.2c-10.4,0-18.8,8.4-18.8,18.8c0,10.4,8.4,18.8,18.8,18.8c10.4,0,18.8-8.4,18.8-18.8
		C427.8,353.7,419.4,345.2,409,345.2"/>
	<path clip-path="url(#SVGID_12_)" d="M278.9,302.1c-10.4,0-18.8,8.4-18.8,18.8s8.4,18.8,18.8,18.8c10.4,0,18.8-8.4,18.8-18.8
		S289.3,302.1,278.9,302.1"/>
	<path clip-path="url(#SVGID_12_)" d="M192.2,302.1c-10.4,0-18.8,8.4-18.8,18.8s8.4,18.8,18.8,18.8c10.4,0,18.8-8.4,18.8-18.8
		S202.6,302.1,192.2,302.1"/>
	<path clip-path="url(#SVGID_12_)" d="M105.5,302.1c-10.4,0-18.8,8.4-18.8,18.8s8.4,18.8,18.8,18.8c10.4,0,18.8-8.4,18.8-18.8
		S115.9,302.1,105.5,302.1"/>
	<path clip-path="url(#SVGID_12_)" d="M365.6,302.1c-10.4,0-18.8,8.4-18.8,18.8s8.4,18.8,18.8,18.8c10.4,0,18.8-8.4,18.8-18.8
		S376,302.1,365.6,302.1"/>
	<path clip-path="url(#SVGID_12_)" d="M433.6,320.9c0,8.5,5.7,15.6,13.4,17.9c5.5-11.1,10.1-22.6,13.8-34.6
		c-2.6-1.3-5.4-2.1-8.4-2.1C442,302.1,433.6,310.5,433.6,320.9"/>
	<path clip-path="url(#SVGID_12_)" d="M278.9,215.9c-10.4,0-18.8,8.4-18.8,18.8c0,10.4,8.4,18.8,18.8,18.8
		c10.4,0,18.8-8.4,18.8-18.8C297.7,224.3,289.3,215.9,278.9,215.9"/>
	<path clip-path="url(#SVGID_12_)" d="M192.2,215.9c-10.4,0-18.8,8.4-18.8,18.8c0,10.4,8.4,18.8,18.8,18.8
		c10.4,0,18.8-8.4,18.8-18.8C211,224.3,202.6,215.9,192.2,215.9"/>
	<path clip-path="url(#SVGID_12_)" d="M105.5,215.9c-10.4,0-18.8,8.4-18.8,18.8c0,10.4,8.4,18.8,18.8,18.8
		c10.4,0,18.8-8.4,18.8-18.8C124.3,224.3,115.9,215.9,105.5,215.9"/>
</g>
<g>
	<defs>
		<rect id="SVGID_13_" x="0.1" y="0.4" width="471.1" height="468.6"/>
	</defs>
	<clipPath id="SVGID_14_">
		<use xlink:href="#SVGID_13_"  overflow="visible"/>
	</clipPath>
	<g clip-path="url(#SVGID_14_)">
		<defs>
			<rect id="SVGID_15_" width="472" height="469"/>
		</defs>
		<clipPath id="SVGID_16_">
			<use xlink:href="#SVGID_15_"  overflow="visible"/>
		</clipPath>
		<path clip-path="url(#SVGID_16_)" d="M37.5,320.9c0-10.4-8.4-18.8-18.8-18.8c-3.1,0-5.9,0.8-8.5,2.1c3.7,12,8.3,23.5,13.8,34.6
			C31.9,336.5,37.5,329.4,37.5,320.9"/>
		<path clip-path="url(#SVGID_16_)" d="M18.8,215.9C8.4,215.9,0,224.3,0,234.7c0,10.4,8.4,18.8,18.8,18.8c10.4,0,18.8-8.4,18.8-18.8
			C37.5,224.3,29.1,215.9,18.8,215.9"/>
	</g>
</g>
<g>
	<defs>
		<rect id="SVGID_17_" width="472" height="469"/>
	</defs>
	<clipPath id="SVGID_18_">
		<use xlink:href="#SVGID_17_"  overflow="visible"/>
	</clipPath>
	<path clip-path="url(#SVGID_18_)" d="M37.5,148.5c0-8.5-5.7-15.6-13.4-17.9c-5.5,11.1-10.1,22.6-13.8,34.6c2.5,1.3,5.4,2.1,8.5,2.1
		C29.1,167.2,37.5,158.8,37.5,148.5"/>
	<path clip-path="url(#SVGID_18_)" d="M365.6,215.9c-10.4,0-18.8,8.4-18.8,18.8c0,10.4,8.4,18.8,18.8,18.8
		c10.4,0,18.8-8.4,18.8-18.8C384.4,224.3,376,215.9,365.6,215.9"/>
	<path clip-path="url(#SVGID_18_)" d="M452.4,253.5c10.4,0,18.8-8.4,18.8-18.8c0-10.4-8.4-18.8-18.8-18.8
		c-10.4,0-18.8,8.4-18.8,18.8C433.6,245.1,442,253.5,452.4,253.5"/>
	<path clip-path="url(#SVGID_18_)" d="M278.9,43.5c-10.4,0-18.8,8.4-18.8,18.8c0,10.4,8.4,18.8,18.8,18.8c10.4,0,18.8-8.4,18.8-18.8
		C297.7,51.9,289.3,43.5,278.9,43.5"/>
	<path clip-path="url(#SVGID_18_)" d="M192.2,43.5c-10.4,0-18.8,8.4-18.8,18.8c0,10.4,8.4,18.8,18.8,18.8c10.4,0,18.8-8.4,18.8-18.8
		C211,51.9,202.6,43.5,192.2,43.5"/>
	<path clip-path="url(#SVGID_18_)" d="M105.5,43.5c-10.4,0-18.8,8.4-18.8,18.8c0,10.4,8.4,18.8,18.8,18.8c10.4,0,18.8-8.4,18.8-18.8
		C124.3,51.9,115.9,43.5,105.5,43.5"/>
	<path clip-path="url(#SVGID_18_)" d="M365.6,43.5c-10.4,0-18.8,8.4-18.8,18.8c0,10.4,8.4,18.8,18.8,18.8c10.4,0,18.8-8.4,18.8-18.8
		C384.4,51.9,376,43.5,365.6,43.5"/>
	<path clip-path="url(#SVGID_18_)" d="M235.6,259c-10.4,0-18.8,8.4-18.8,18.8c0,10.4,8.4,18.8,18.8,18.8c10.4,0,18.8-8.4,18.8-18.8
		C254.3,267.4,245.9,259,235.6,259"/>
	<path clip-path="url(#SVGID_18_)" d="M148.8,259c-10.4,0-18.8,8.4-18.8,18.8c0,10.4,8.4,18.8,18.8,18.8c10.4,0,18.8-8.4,18.8-18.8
		C167.6,267.4,159.2,259,148.8,259"/>
	<path clip-path="url(#SVGID_18_)" d="M62.1,259c-10.4,0-18.8,8.4-18.8,18.8c0,10.4,8.4,18.8,18.8,18.8c10.4,0,18.8-8.4,18.8-18.8
		C80.9,267.4,72.5,259,62.1,259"/>
	<path clip-path="url(#SVGID_18_)" d="M322.3,259c-10.4,0-18.8,8.4-18.8,18.8c0,10.4,8.4,18.8,18.8,18.8c10.4,0,18.8-8.4,18.8-18.8
		C341,267.4,332.6,259,322.3,259"/>
	<path clip-path="url(#SVGID_18_)" d="M409,259c-10.4,0-18.8,8.4-18.8,18.8c0,10.4,8.4,18.8,18.8,18.8c10.4,0,18.8-8.4,18.8-18.8
		C427.8,267.4,419.4,259,409,259"/>
	<path clip-path="url(#SVGID_18_)" d="M278.9,129.7c-10.4,0-18.8,8.4-18.8,18.8c0,10.4,8.4,18.8,18.8,18.8
		c10.4,0,18.8-8.4,18.8-18.8C297.7,138.1,289.3,129.7,278.9,129.7"/>
	<path clip-path="url(#SVGID_18_)" d="M192.2,129.7c-10.4,0-18.8,8.4-18.8,18.8c0,10.4,8.4,18.8,18.8,18.8
		c10.4,0,18.8-8.4,18.8-18.8C211,138.1,202.6,129.7,192.2,129.7"/>
	<path clip-path="url(#SVGID_18_)" d="M105.5,129.7c-10.4,0-18.8,8.4-18.8,18.8c0,10.4,8.4,18.8,18.8,18.8
		c10.4,0,18.8-8.4,18.8-18.8C124.3,138.1,115.9,129.7,105.5,129.7"/>
	<path clip-path="url(#SVGID_18_)" d="M365.6,129.7c-10.4,0-18.8,8.4-18.8,18.8c0,10.4,8.4,18.8,18.8,18.8
		c10.4,0,18.8-8.4,18.8-18.8C384.4,138.1,376,129.7,365.6,129.7"/>
	<path clip-path="url(#SVGID_18_)" d="M433.6,148.5c0,10.4,8.4,18.8,18.8,18.8c3.1,0,5.9-0.8,8.4-2.1c-3.7-12-8.3-23.5-13.8-34.6
		C439.3,132.9,433.6,140,433.6,148.5"/>
</g>
</svg>
