<?xml version="1.0" encoding="utf-8"?>
<!-- Generator: Adobe Illustrator 18.1.1, SVG Export Plug-In . SVG Version: 6.00 Build 0)  -->
<!DOCTYPE svg PUBLIC "-//W3C//DTD SVG 1.1//EN" "http://www.w3.org/Graphics/SVG/1.1/DTD/svg11.dtd">
<svg version="1.1" id="Layer_1" xmlns="http://www.w3.org/2000/svg" xmlns:xlink="http://www.w3.org/1999/xlink" x="0px" y="0px"
	 viewBox="0 0 907 189" enable-background="new 0 0 907 189" xml:space="preserve">
<polyline fill="#7B7979" points="242.2,38.6 242.2,62.8 232.5,62.8 232.5,16.5 242.2,16.5 242.2,37.6 255.4,16.5 266.8,16.5 
	252,37.9 268.5,62.8 256.2,62.8 242.2,38.6 "/>
<path fill="#7B7979" d="M289.7,40.7c0-1.9-0.2-3.3-0.6-3.9c-0.4-0.7-1.2-1-2.4-1c-0.9,0-1.9,0.3-3,0.8c-1.1,0.5-2.2,1.3-3.2,2.2v24
	h-8.9V38.1c0-3-0.4-5.6-1.2-8l7.9-2.3c0.8,1.4,1.3,2.8,1.3,4.3c0.7-0.5,1.3-0.9,1.9-1.3c0.6-0.4,1.3-0.8,2-1.2
	c0.9-0.5,1.9-0.9,2.9-1.1c1.1-0.2,2.1-0.4,3.1-0.4c1.9,0,3.6,0.5,5.1,1.4c1.5,0.9,2.5,2.1,3.1,3.6c0.4,1.2,0.7,2.8,0.7,4.9v24.9
	h-8.7V40.7"/>
<path fill="#7B7979" d="M314.2,23.2c-1.1,1.1-2.4,1.6-3.9,1.6c-1.5,0-2.8-0.5-3.9-1.6c-1.1-1.1-1.6-2.4-1.6-3.9
	c0-1.5,0.5-2.9,1.6-3.9c1.1-1.1,2.4-1.6,4-1.6c1.5,0,2.8,0.5,3.8,1.6c1,1.1,1.6,2.4,1.6,3.9C315.8,20.8,315.3,22.1,314.2,23.2
	 M305.8,29.3l9-1.4v34.9h-9V29.3z"/>
<path fill="#7B7979" d="M353.3,34.3c-1,0.4-2.1,0.6-3.3,0.6c-0.4,0-0.9,0-1.3-0.1c-0.4,0-0.8-0.1-1-0.1c0.7,0.8,1.2,1.6,1.5,2.5
	c0.3,0.9,0.5,1.9,0.5,3.1c0,1.5-0.3,2.8-0.9,4.1c-0.6,1.2-1.5,2.3-2.7,3.2c-1.1,0.9-2.5,1.6-4,2.1c-1.5,0.5-3.2,0.8-5.1,0.8H336
	c-0.1,0-0.2,0-0.4-0.1c-1.2,0.5-2.1,1-2.7,1.4c-0.6,0.4-0.9,0.9-0.9,1.4c0,0.5,0.5,0.8,1.5,0.8l4.8,0.1c2.6,0,4.6,0.3,6.2,0.7
	c1.5,0.4,2.9,1.2,4.1,2.3c1.9,1.8,2.9,4.2,2.9,7.3c0,2.8-0.9,5.1-2.7,7.1c-1.5,1.6-3.5,2.7-5.8,3.4c-2.4,0.7-4.9,1-7.6,1
	c-2.4,0-4.8-0.3-7.1-0.8c-2.3-0.5-4.2-1.5-5.8-2.9c-1.9-1.7-2.8-3.8-2.8-6.1c0-0.9,0.1-1.7,0.3-2.2c0.2-0.5,0.4-0.9,0.5-1.3h8.3
	c-0.2,0.4-0.3,0.8-0.3,1.1c0,0.3-0.1,0.7-0.1,1.2c0,2.9,2.1,4.3,6.4,4.3c1.2,0,2.2-0.1,3.1-0.2c0.9-0.2,1.8-0.5,2.5-0.9
	c0.7-0.4,1.2-0.9,1.6-1.5c0.4-0.6,0.6-1.3,0.6-2c0-1.6-0.6-2.6-1.8-3.2c-1.2-0.6-2.7-0.9-4.5-0.9l-3.8-0.1c-4-0.1-6.7-0.4-8.2-1.1
	c-0.8-0.3-1.4-0.8-1.9-1.6c-0.5-0.8-0.7-1.7-0.7-2.9c0-0.5,0.1-1.1,0.2-1.6c0.1-0.5,0.4-1,0.8-1.5c0.4-0.5,1-1,1.9-1.4
	c0.8-0.4,1.9-0.8,3.4-1.2c-4.9-1.3-7.3-4.4-7.3-9.5c0-1.7,0.3-3.3,1-4.7c0.7-1.4,1.7-2.6,2.9-3.6c1.2-1,2.8-1.8,4.6-2.3
	c1.8-0.6,3.8-0.8,6-0.8c1,0,1.9,0.1,2.9,0.2c0.9,0.1,2,0.4,3.3,0.7c0.9,0.2,1.7,0.4,2.4,0.5c0.6,0.1,1.3,0.2,1.8,0.2
	c1.2,0,2.5-0.3,3.7-0.8c1.2-0.5,2.3-1.2,3.4-2.2l3.7,5.7C355.3,33.3,354.3,33.9,353.3,34.3 M338.9,36c-1-0.9-2.3-1.3-4-1.3
	c-1.7,0-3,0.4-3.9,1.3c-0.9,0.9-1.4,2.1-1.4,3.7c0,1.7,0.5,2.9,1.5,3.7c1,0.7,2.2,1.1,3.8,1.1c3.6,0,5.5-1.6,5.5-4.8
	C340.3,38.1,339.9,36.9,338.9,36z"/>
<path fill="#7B7979" d="M378.8,39.8c0-1.7-0.3-2.9-0.8-3.6c-0.5-0.7-1.4-1.1-2.7-1.1c-1.1,0-2.3,0.3-3.6,0.9
	c-1.3,0.6-2.5,1.3-3.5,2.2v24.6h-9V23.3c0-1.6-0.1-3.1-0.2-4.6c-0.1-1.4-0.3-2.5-0.5-3.2l9.1-2.1c0.2,0.9,0.4,2.1,0.5,3.6
	c0.1,1.5,0.1,3.1,0.1,4.7v6.8c0,0.5,0,1.1-0.1,1.7c0,0.6-0.1,1-0.1,1.2c1.2-1.1,2.6-2,4.4-2.7c1.8-0.7,3.5-1,5.3-1
	c2.2,0,4.1,0.4,5.7,1.3c1.6,0.9,2.7,2.1,3.2,3.6c0.2,0.5,0.3,0.9,0.4,1.4c0.1,0.4,0.2,0.9,0.3,1.3c0.1,0.5,0.1,1,0.1,1.6
	c0,0.6,0,1.3,0,2.1v23.8h-8.7V39.8"/>
<path fill="#7B7979" d="M405.1,63.6c-2.3,0-4.3-0.5-6-1.4c-1.7-0.9-2.8-2.1-3.3-3.6c-0.1-0.4-0.2-0.7-0.3-1c-0.1-0.3-0.1-0.6-0.2-1
	c0-0.4,0-0.8-0.1-1.3c0-0.5,0-1.2,0-2V34.9h-3.4v-6.1h3.4c0-1.7,0-3.1,0-4.3c0-1.2,0.1-2.4,0.3-3.7l9.2-2.3c-0.2,1.6-0.3,3.2-0.4,5
	c-0.1,1.8-0.1,3.6-0.1,5.3h8l-2.3,6.1h-5.7v16.9c0,1.1,0.1,1.9,0.2,2.6c0.1,0.7,0.3,1.3,0.6,1.7c0.3,0.4,0.7,0.7,1.2,0.9
	c0.5,0.2,1.1,0.2,1.9,0.2c0.4,0,0.8-0.1,1.3-0.2c0.5-0.1,1.1-0.3,1.9-0.5l1.1,5.4C409.9,63,407.4,63.6,405.1,63.6"/>
<rect x="412.6" y="40.7" fill="#7B7979" width="16" height="7.7"/>
<path fill="#7B7979" d="M469.7,38.1c-0.1-1.5-0.2-2.8-0.2-4c-0.1-1.2-0.1-2.5-0.1-3.7c-0.3,1.3-0.5,2.5-0.8,3.5
	c-0.2,1-0.6,2.2-1,3.6l-7.3,25.3h-8l-6.6-24.3c-0.3-1.2-0.6-2.5-1-3.9c-0.4-1.5-0.6-2.8-0.9-4.1c0,1.3,0,2.7-0.1,4
	c0,1.4-0.1,2.8-0.2,4.2l-1.6,24.2h-9.3l4.3-46.3h11.9l6.1,23.2c0.2,0.8,0.4,1.6,0.6,2.2c0.2,0.6,0.3,1.2,0.4,1.8
	c0.1,0.6,0.2,1.1,0.3,1.6c0.1,0.5,0.2,1.1,0.3,1.7c0.2-1.2,0.5-2.4,0.7-3.6c0.3-1.2,0.6-2.6,0.9-3.9l6.3-23h11.9l4.1,46.3h-9.1
	L469.7,38.1"/>
<path fill="#7B7979" d="M514.5,53.1c-0.7,2.1-1.8,4-3.2,5.7c-1.3,1.5-2.8,2.6-4.6,3.5c-1.8,0.8-4,1.3-6.6,1.3
	c-2.3,0-4.4-0.4-6.3-1.3c-1.9-0.8-3.5-2-4.8-3.6c-1.3-1.5-2.4-3.4-3.1-5.6c-0.7-2.2-1.1-4.6-1.1-7.3s0.4-5.1,1.1-7.3
	c0.7-2.2,1.8-4.1,3.1-5.7c1.3-1.6,2.9-2.8,4.8-3.6c1.9-0.8,4-1.3,6.3-1.3c4.8,0,8.7,1.7,11.6,5.1c1.4,1.6,2.4,3.4,3,5.3
	s0.9,4.3,0.9,7.1C515.6,48.5,515.2,51,514.5,53.1 M504.1,36.5c-0.9-1.2-2.2-1.8-3.9-1.8c-1.1,0-2,0.3-2.8,0.9
	c-0.8,0.6-1.4,1.5-1.8,2.5c-0.3,0.9-0.5,1.9-0.7,3.2c-0.2,1.2-0.2,2.7-0.2,4.4c0,3.9,0.4,6.7,1.1,8.6c0.4,0.9,1,1.6,1.9,2.1
	c0.9,0.5,1.7,0.7,2.6,0.7c2,0,3.4-0.9,4.3-2.7c0.8-1.8,1.3-4.7,1.3-8.8C505.9,41,505.3,38,504.1,36.5z"/>
<polyline fill="#7B7979" points="517.9,62.8 517.9,57.3 533.9,35.1 519.2,35.1 519.2,28.8 544.5,28.8 544.5,34.9 529.5,56.4 
	545.1,56.4 543,62.8 517.9,62.8 "/>
<path fill="#7B7979" d="M558.1,23.2c-1.1,1.1-2.4,1.6-3.9,1.6c-1.5,0-2.8-0.5-3.9-1.6c-1.1-1.1-1.6-2.4-1.6-3.9
	c0-1.5,0.5-2.9,1.6-3.9c1.1-1.1,2.4-1.6,4-1.6c1.5,0,2.8,0.5,3.8,1.6c1,1.1,1.6,2.4,1.6,3.9C559.7,20.8,559.2,22.1,558.1,23.2
	 M549.7,29.3l9-1.4v34.9h-9V29.3z"/>
<path fill="#7B7979" d="M574.8,63.6c-1.9,0-3.5-0.4-4.9-1.3c-1.4-0.8-2.4-2-2.9-3.4c-0.2-0.4-0.3-0.9-0.4-1.3
	c-0.1-0.4-0.2-0.9-0.2-1.4c-0.1-0.5-0.1-1.2-0.1-2c0-0.8,0-1.8,0-3V25.8c0-2.3,0-4.1-0.1-5.7c-0.1-1.5-0.2-3-0.4-4.6l9-2.1
	c0.2,0.9,0.3,2,0.4,3.3c0.1,1.3,0.1,3.1,0.1,5.5v26.6c0,1.5,0,2.6,0,3.5c0,0.9,0,1.6,0.1,2.1c0,0.5,0.1,0.9,0.2,1.2
	c0.1,0.3,0.2,0.5,0.3,0.7c0.4,0.6,1,0.9,1.8,0.9h0.5c0.1,0,0.3,0,0.5-0.1l1.5,5.3C578.4,63.3,576.7,63.6,574.8,63.6"/>
<path fill="#7B7979" d="M591.9,63.6c-1.9,0-3.5-0.4-4.9-1.3c-1.4-0.8-2.4-2-2.9-3.4c-0.2-0.4-0.3-0.9-0.4-1.3
	c-0.1-0.4-0.2-0.9-0.2-1.4c-0.1-0.5-0.1-1.2-0.1-2c0-0.8,0-1.8,0-3V25.8c0-2.3,0-4.1-0.1-5.7c-0.1-1.5-0.2-3-0.4-4.6l9-2.1
	c0.2,0.9,0.3,2,0.4,3.3c0.1,1.3,0.1,3.1,0.1,5.5v26.6c0,1.5,0,2.6,0,3.5c0,0.9,0,1.6,0.1,2.1c0,0.5,0.1,0.9,0.2,1.2
	c0.1,0.3,0.2,0.5,0.3,0.7c0.4,0.6,1,0.9,1.8,0.9h0.5c0.1,0,0.3,0,0.5-0.1l1.5,5.3C595.6,63.3,593.8,63.6,591.9,63.6"/>
<path fill="#7B7979" d="M621.6,62.8c-0.9-0.7-1.5-1.5-2-2.4c-0.4,0.4-0.7,0.7-1,1c-0.3,0.3-0.7,0.6-1,0.8c-1.7,1.2-4,1.9-6.8,1.9
	c-3.8,0-6.7-0.9-8.7-2.7c-2-1.8-3-4.5-3-8c0-4.1,1.4-7,4.1-8.9c2.7-1.9,6.8-2.8,12.3-2.8h1c0.4,0,0.8,0,1,0.1v-1.4
	c0-1.9-0.3-3.2-0.8-3.9c-0.5-0.7-1.6-1.1-3.2-1.1c-1.4,0-3,0.3-4.6,1c-1.6,0.7-3.4,1.6-5.3,2.9l-3.8-6.4c0.9-0.6,1.7-1.1,2.5-1.5
	c0.8-0.4,1.8-0.8,3-1.3c1.7-0.7,3.3-1.2,4.8-1.5c1.5-0.3,3-0.5,4.6-0.5c2.9,0,5.3,0.5,7.1,1.5c1.8,1,3.1,2.5,3.7,4.4
	c0.2,0.5,0.4,1,0.5,1.6c0.1,0.6,0.1,1.3,0.1,2.2V40l-0.2,11.5c0,0.9,0,1.7,0.1,2.4c0,0.7,0.2,1.3,0.4,1.9c0.2,0.6,0.5,1.1,1,1.6
	c0.4,0.5,1,1.1,1.8,1.6l-4.7,5.5C623.4,64.1,622.4,63.5,621.6,62.8 M610.5,48.9c-1.2,0.7-1.8,2.1-1.8,4.1c0,1.3,0.4,2.4,1.1,3.2
	c0.7,0.8,1.6,1.2,2.8,1.2c1.8,0,3.3-0.8,4.6-2.3l0.1-7.2h-0.4C613.9,47.9,611.7,48.2,610.5,48.9z"/>
<path fill="#231F20" d="M238.1,94.8c8-7.9,18-12.2,29.6-12.2c11.8,0,22,4.1,30.3,12.3c8.5,8.4,12.9,18.9,12.9,30.9
	c0,12.1-3.8,22.1-11.1,30.1c-8.6,9.3-19.4,14.2-32.1,14.2c-12.5,0-23.3-4.9-31.8-14.4c-7.1-7.9-10.9-18.2-10.9-29.8
	C225,114.1,229.5,103.3,238.1,94.8 M246.2,148.5c5.8,6,13.7,9.5,21.5,9.5c17.4,0,30.5-14,30.5-32.3c0-7.7-2.8-14.9-8.3-20.8
	c-6.3-6.7-13.3-10.1-22.2-10.1c-7.9,0-15.3,3.1-20.8,8.8c-5.9,6-9.4,14.3-9.4,22.4C237.5,134.8,240.7,142.9,246.2,148.5z"/>
<path fill="#231F20" d="M325.6,115.3h-8.9v-10.9h20.2v8.2c5.7-6.4,12.9-9.5,22-9.5c9,0,16.8,3.3,23.2,9.6c6.4,6.4,9.8,14.7,9.8,23.8
	c0,9.1-3.4,17.4-9.8,23.8c-6.4,6.3-14.2,9.6-23.2,9.6c-9.3,0-16.3-3-21.9-9.3V178h9.6v11h-30.3v-11h9.2V115.3 M358.3,158.7
	c11.8,0,21.7-9.7,21.7-22.2c0-12.5-9.8-22.4-21.7-22.4c-12.7,0-21.5,9.5-21.5,22.4C336.8,149.4,345.7,158.7,358.3,158.7z"/>
<path fill="#231F20" d="M431.5,170.1c-9,0-17.4-3.4-23.8-9.8c-6.4-6.4-9.9-14.8-9.9-23.8c0-9,3.6-17.4,9.9-23.8
	c6.4-6.4,14.8-9.8,23.8-9.8c11.4,0,21.6,5.4,27.9,14.9c3.8,5.7,5.6,11.8,5.6,18.6c0,1.5-0.1,3.1-0.2,4.6h-54.5
	c2.6,11,11.2,17.7,21.3,17.7c7.5,0,13.8-3.7,18.5-10.6H463C457.6,161.9,445.5,170.1,431.5,170.1 M452.2,130.2
	c-3-10.1-11-16.1-20.7-16.1c-9.7,0-17.5,5.9-20.8,16.1H452.2z"/>
<path fill="#231F20" d="M478.3,115.3h-9v-10.9h20v9.2c4.1-7,10.4-10.3,18.9-10.3c7.1,0,13.4,2.6,17.6,6.9c6.3,6.3,7.5,12.4,7.5,21.9
	v25.3h9.1v11h-29.3v-11h8.8v-22c0-14.4-3.4-21.1-15.5-21.1c-10.5,0-16.6,7.3-16.6,21.3v21.8h8.8v11h-29.5v-11h9.2V115.3"/>
<polyline fill="#231F20" points="582.3,157.2 582.3,168.4 550.5,168.4 550.5,157.2 560.3,157.2 560.3,95.3 550.5,95.3 550.5,84.3 
	572.7,84.3 613.8,147.6 613.8,95.3 603.8,95.3 603.8,84.3 635.7,84.3 635.7,95.3 625.8,95.3 625.8,168.4 613.9,168.4 572.4,103.1 
	572.4,157.2 582.3,157.2 "/>
<path fill="#231F20" d="M667.4,170.1c-9,0-17.4-3.4-23.8-9.8c-6.4-6.4-9.9-14.8-9.9-23.8c0-9,3.5-17.4,9.9-23.8
	c6.4-6.4,14.8-9.8,23.8-9.8c11.4,0,21.7,5.4,27.9,14.9c3.8,5.7,5.6,11.8,5.6,18.6c0,1.5-0.1,3.1-0.2,4.6h-54.5
	c2.6,11,11.2,17.7,21.3,17.7c7.5,0,13.8-3.7,18.5-10.6H699C693.5,161.9,681.4,170.1,667.4,170.1 M688.1,130.2
	c-3-10.1-11-16.1-20.7-16.1c-9.7,0-17.5,5.9-20.8,16.1H688.1z"/>
<polyline fill="#231F20" points="709.2,115.3 701.7,115.3 701.7,104.4 730.7,104.4 730.7,115.3 721,115.3 732.8,150.8 748.3,104.4 
	755.2,104.4 770.7,150.8 782.5,115.3 772.8,115.3 772.8,104.4 801.8,104.4 801.8,115.3 794.2,115.3 775.7,168.4 766.3,168.4 
	751.7,127 737.2,168.4 727.8,168.4 709.2,115.3 "/>
<path fill="#231F20" d="M818,147.7v0.2c0,6.7,4.6,11.4,10.9,11.4c6.6,0,10.6-3.3,10.6-8.5c0-5.7-3.1-7.7-10.2-9.7
	c-7.2-2.1-12.3-3.3-14.9-5c-5.6-3.6-8.2-8.2-8.2-14.6c0-10.8,7.9-18.6,19.2-18.6c4.9,0,9,1.7,12.4,5v-3.6h9.8V121h-11.1
	c-0.7-5.1-4.3-8.2-9.7-8.2c-5.6,0-9.1,3.5-9.1,7.8c0,7,6.5,7,17.4,10.5c11.2,3.7,16.2,8.6,16.2,18.9c0,11.5-8.4,19.8-20.7,19.8
	c-5.9,0-10.4-1.7-14.2-5.6v4.1h-10.6v-20.7H818"/>
<path fill="#231F20" d="M157.9,48.9c-3.9,0-7.1-3.2-7.1-7.1c0-3.9,3.2-7.1,7.1-7.1c3.9,0,7.1,3.2,7.1,7.1
	C165,45.8,161.9,48.9,157.9,48.9 M157.9,81.6c-3.9,0-7.1-3.2-7.1-7.1c0-3.9,3.2-7.1,7.1-7.1c3.9,0,7.1,3.2,7.1,7.1
	C165,78.4,161.9,81.6,157.9,81.6 M157.9,114.3c-3.9,0-7.1-3.2-7.1-7.1c0-3.9,3.2-7.1,7.1-7.1c3.9,0,7.1,3.2,7.1,7.1
	C165,111.1,161.9,114.3,157.9,114.3 M157.9,146.9c-3.9,0-7.1-3.2-7.1-7.1c0-3.9,3.2-7.1,7.1-7.1c3.9,0,7.1,3.2,7.1,7.1
	C165,143.7,161.9,146.9,157.9,146.9 M141.5,32.6c-3.9,0-7.1-3.2-7.1-7.1c0-3.9,3.2-7.1,7.1-7.1c3.9,0,7.1,3.2,7.1,7.1
	C148.6,29.4,145.4,32.6,141.5,32.6 M141.5,65.3c-3.9,0-7.1-3.2-7.1-7.1c0-3.9,3.2-7.1,7.1-7.1c3.9,0,7.1,3.2,7.1,7.1
	C148.6,62.1,145.4,65.3,141.5,65.3 M141.5,97.9c-3.9,0-7.1-3.2-7.1-7.1c0-3.9,3.2-7.1,7.1-7.1c3.9,0,7.1,3.2,7.1,7.1
	C148.6,94.7,145.4,97.9,141.5,97.9 M141.5,130.6c-3.9,0-7.1-3.2-7.1-7.1c0-3.9,3.2-7.1,7.1-7.1c3.9,0,7.1,3.2,7.1,7.1
	C148.6,127.4,145.4,130.6,141.5,130.6 M141.5,163.2c-3.9,0-7.1-3.2-7.1-7.1c0-3.9,3.2-7.1,7.1-7.1c3.9,0,7.1,3.2,7.1,7.1
	C148.6,160.1,145.4,163.2,141.5,163.2 M125.1,48.9c-3.9,0-7.1-3.2-7.1-7.1c0-3.9,3.2-7.1,7.1-7.1c3.9,0,7.1,3.2,7.1,7.1
	C132.2,45.8,129,48.9,125.1,48.9 M125.1,81.6c-3.9,0-7.1-3.2-7.1-7.1c0-3.9,3.2-7.1,7.1-7.1c3.9,0,7.1,3.2,7.1,7.1
	C132.2,78.4,129,81.6,125.1,81.6 M125.1,114.3c-3.9,0-7.1-3.2-7.1-7.1c0-3.9,3.2-7.1,7.1-7.1c3.9,0,7.1,3.2,7.1,7.1
	C132.2,111.1,129,114.3,125.1,114.3 M125.1,146.9c-3.9,0-7.1-3.2-7.1-7.1c0-3.9,3.2-7.1,7.1-7.1c3.9,0,7.1,3.2,7.1,7.1
	C132.2,143.7,129,146.9,125.1,146.9 M108.7,32.6c-3.9,0-7.1-3.2-7.1-7.1c0-3.9,3.2-7.1,7.1-7.1c3.9,0,7.1,3.2,7.1,7.1
	C115.8,29.4,112.6,32.6,108.7,32.6 M108.7,65.3c-3.9,0-7.1-3.2-7.1-7.1c0-3.9,3.2-7.1,7.1-7.1c3.9,0,7.1,3.2,7.1,7.1
	C115.8,62.1,112.6,65.3,108.7,65.3 M108.7,97.9c-3.9,0-7.1-3.2-7.1-7.1c0-3.9,3.2-7.1,7.1-7.1c3.9,0,7.1,3.2,7.1,7.1
	C115.8,94.7,112.6,97.9,108.7,97.9 M108.7,130.6c-3.9,0-7.1-3.2-7.1-7.1c0-3.9,3.2-7.1,7.1-7.1c3.9,0,7.1,3.2,7.1,7.1
	C115.8,127.4,112.6,130.6,108.7,130.6 M108.7,163.2c-3.9,0-7.1-3.2-7.1-7.1c0-3.9,3.2-7.1,7.1-7.1c3.9,0,7.1,3.2,7.1,7.1
	C115.8,160.1,112.6,163.2,108.7,163.2 M92.2,16.3c-3.9,0-7.1-3.2-7.1-7.1s3.2-7.1,7.1-7.1c3.9,0,7.1,3.2,7.1,7.1
	S96.2,16.3,92.2,16.3 M92.2,48.9c-3.9,0-7.1-3.2-7.1-7.1c0-3.9,3.2-7.1,7.1-7.1c3.9,0,7.1,3.2,7.1,7.1
	C99.3,45.8,96.2,48.9,92.2,48.9 M92.2,81.6c-3.9,0-7.1-3.2-7.1-7.1c0-3.9,3.2-7.1,7.1-7.1c3.9,0,7.1,3.2,7.1,7.1
	C99.3,78.4,96.2,81.6,92.2,81.6 M92.2,114.3c-3.9,0-7.1-3.2-7.1-7.1c0-3.9,3.2-7.1,7.1-7.1c3.9,0,7.1,3.2,7.1,7.1
	C99.3,111.1,96.2,114.3,92.2,114.3 M92.2,146.9c-3.9,0-7.1-3.2-7.1-7.1c0-3.9,3.2-7.1,7.1-7.1c3.9,0,7.1,3.2,7.1,7.1
	C99.3,143.7,96.2,146.9,92.2,146.9 M92.2,179.6c-3.9,0-7.1-3.2-7.1-7.1c0-3.9,3.2-7.1,7.1-7.1c3.9,0,7.1,3.2,7.1,7.1
	C99.3,176.4,96.2,179.6,92.2,179.6 M75.8,32.6c-3.9,0-7.1-3.2-7.1-7.1c0-3.9,3.2-7.1,7.1-7.1c3.9,0,7.1,3.2,7.1,7.1
	C82.9,29.4,79.7,32.6,75.8,32.6 M75.8,65.3c-3.9,0-7.1-3.2-7.1-7.1c0-3.9,3.2-7.1,7.1-7.1c3.9,0,7.1,3.2,7.1,7.1
	C82.9,62.1,79.7,65.3,75.8,65.3 M75.8,97.9c-3.9,0-7.1-3.2-7.1-7.1c0-3.9,3.2-7.1,7.1-7.1c3.9,0,7.1,3.2,7.1,7.1
	C82.9,94.7,79.7,97.9,75.8,97.9 M75.8,130.6c-3.9,0-7.1-3.2-7.1-7.1c0-3.9,3.2-7.1,7.1-7.1c3.9,0,7.1,3.2,7.1,7.1
	C82.9,127.4,79.7,130.6,75.8,130.6 M75.8,163.2c-3.9,0-7.1-3.2-7.1-7.1c0-3.9,3.2-7.1,7.1-7.1c3.9,0,7.1,3.2,7.1,7.1
	C82.9,160.1,79.7,163.2,75.8,163.2 M59.4,48.9c-3.9,0-7.1-3.2-7.1-7.1c0-3.9,3.2-7.1,7.1-7.1c3.9,0,7.1,3.2,7.1,7.1
	C66.5,45.8,63.3,48.9,59.4,48.9 M59.4,81.6c-3.9,0-7.1-3.2-7.1-7.1c0-3.9,3.2-7.1,7.1-7.1c3.9,0,7.1,3.2,7.1,7.1
	C66.5,78.4,63.3,81.6,59.4,81.6 M59.4,114.3c-3.9,0-7.1-3.2-7.1-7.1c0-3.9,3.2-7.1,7.1-7.1c3.9,0,7.1,3.2,7.1,7.1
	C66.5,111.1,63.3,114.3,59.4,114.3 M59.4,146.9c-3.9,0-7.1-3.2-7.1-7.1c0-3.9,3.2-7.1,7.1-7.1c3.9,0,7.1,3.2,7.1,7.1
	C66.5,143.7,63.3,146.9,59.4,146.9 M43,32.6c-3.9,0-7.1-3.2-7.1-7.1c0-3.9,3.2-7.1,7.1-7.1c3.9,0,7.1,3.2,7.1,7.1
	C50.1,29.4,46.9,32.6,43,32.6 M43,65.3c-3.9,0-7.1-3.2-7.1-7.1c0-3.9,3.2-7.1,7.1-7.1c3.9,0,7.1,3.2,7.1,7.1
	C50.1,62.1,46.9,65.3,43,65.3 M43,97.9c-3.9,0-7.1-3.2-7.1-7.1c0-3.9,3.2-7.1,7.1-7.1c3.9,0,7.1,3.2,7.1,7.1
	C50.1,94.7,46.9,97.9,43,97.9 M43,130.6c-3.9,0-7.1-3.2-7.1-7.1c0-3.9,3.2-7.1,7.1-7.1c3.9,0,7.1,3.2,7.1,7.1
	C50.1,127.4,46.9,130.6,43,130.6 M43,163.2c-3.9,0-7.1-3.2-7.1-7.1c0-3.9,3.2-7.1,7.1-7.1c3.9,0,7.1,3.2,7.1,7.1
	C50.1,160.1,46.9,163.2,43,163.2 M26.5,48.9c-3.9,0-7.1-3.2-7.1-7.1c0-3.9,3.2-7.1,7.1-7.1c3.9,0,7.1,3.2,7.1,7.1
	C33.6,45.8,30.5,48.9,26.5,48.9 M26.5,81.6c-3.9,0-7.1-3.2-7.1-7.1c0-3.9,3.2-7.1,7.1-7.1c3.9,0,7.1,3.2,7.1,7.1
	C33.6,78.4,30.5,81.6,26.5,81.6 M26.5,114.3c-3.9,0-7.1-3.2-7.1-7.1c0-3.9,3.2-7.1,7.1-7.1c3.9,0,7.1,3.2,7.1,7.1
	C33.6,111.1,30.5,114.3,26.5,114.3 M26.5,146.9c-3.9,0-7.1-3.2-7.1-7.1c0-3.9,3.2-7.1,7.1-7.1c3.9,0,7.1,3.2,7.1,7.1
	C33.6,143.7,30.5,146.9,26.5,146.9 M10.1,97.9c-3.9,0-7.1-3.2-7.1-7.1c0-3.9,3.2-7.1,7.1-7.1c3.9,0,7.1,3.2,7.1,7.1
	C17.2,94.7,14,97.9,10.1,97.9 M174.4,83.7c3.9,0,7.1,3.2,7.1,7.1c0,3.9-3.2,7.1-7.1,7.1c-3.9,0-7.1-3.2-7.1-7.1
	C167.2,86.9,170.4,83.7,174.4,83.7"/>
<path fill="#231F20" d="M92.2,67.4c-3.9,0-7.1,3.2-7.1,7.1c0,3.9,3.2,7.1,7.1,7.1c3.9,0,7.1-3.2,7.1-7.1
	C99.3,70.6,96.2,67.4,92.2,67.4"/>
<path fill="#231F20" d="M59.4,67.4c-3.9,0-7.1,3.2-7.1,7.1c0,3.9,3.2,7.1,7.1,7.1c3.9,0,7.1-3.2,7.1-7.1
	C66.5,70.6,63.3,67.4,59.4,67.4"/>
<path fill="#231F20" d="M26.5,67.4c-3.9,0-7.1,3.2-7.1,7.1c0,3.9,3.2,7.1,7.1,7.1c3.9,0,7.1-3.2,7.1-7.1
	C33.6,70.6,30.5,67.4,26.5,67.4"/>
<path fill="#231F20" d="M125.1,67.4c-3.9,0-7.1,3.2-7.1,7.1c0,3.9,3.2,7.1,7.1,7.1c3.9,0,7.1-3.2,7.1-7.1
	C132.2,70.6,129,67.4,125.1,67.4"/>
<path fill="#231F20" d="M157.9,67.4c-3.9,0-7.1,3.2-7.1,7.1c0,3.9,3.2,7.1,7.1,7.1c3.9,0,7.1-3.2,7.1-7.1
	C165,70.6,161.9,67.4,157.9,67.4"/>
<path fill="#231F20" d="M92.2,34.7c-3.9,0-7.1,3.2-7.1,7.1c0,3.9,3.2,7.1,7.1,7.1c3.9,0,7.1-3.2,7.1-7.1
	C99.3,37.9,96.2,34.7,92.2,34.7"/>
<path fill="#231F20" d="M59.4,34.7c-3.9,0-7.1,3.2-7.1,7.1c0,3.9,3.2,7.1,7.1,7.1c3.9,0,7.1-3.2,7.1-7.1
	C66.5,37.9,63.3,34.7,59.4,34.7"/>
<path fill="#231F20" d="M26.5,34.7c-3.9,0-7.1,3.2-7.1,7.1c0,3.9,3.2,7.1,7.1,7.1c3.9,0,7.1-3.2,7.1-7.1
	C33.6,37.9,30.5,34.7,26.5,34.7"/>
<path fill="#231F20" d="M125.1,34.7c-3.9,0-7.1,3.2-7.1,7.1c0,3.9,3.2,7.1,7.1,7.1c3.9,0,7.1-3.2,7.1-7.1
	C132.2,37.9,129,34.7,125.1,34.7"/>
<path fill="#231F20" d="M157.9,34.7c-3.9,0-7.1,3.2-7.1,7.1c0,3.9,3.2,7.1,7.1,7.1c3.9,0,7.1-3.2,7.1-7.1
	C165,37.9,161.9,34.7,157.9,34.7"/>
<path fill="#231F20" d="M92.2,2.1c-3.9,0-7.1,3.2-7.1,7.1s3.2,7.1,7.1,7.1c3.9,0,7.1-3.2,7.1-7.1S96.2,2.1,92.2,2.1"/>
<path fill="#231F20" d="M59.4,16.3c3.9,0,7.1-3.2,7.1-7.1c0-1.3-0.4-2.5-1-3.6c-4.5,1.4-8.8,3.2-13,5.3C53.3,14,56,16.3,59.4,16.3"
	/>
<path fill="#231F20" d="M125.1,16.3c3.3,0,6.1-2.3,6.9-5.4c-4.2-2.1-8.5-3.8-13-5.3c-0.6,1.1-1,2.3-1,3.6
	C118,13.1,121.2,16.3,125.1,16.3"/>
<path fill="#231F20" d="M92.2,165.4c-3.9,0-7.1,3.2-7.1,7.1c0,3.9,3.2,7.1,7.1,7.1c3.9,0,7.1-3.2,7.1-7.1
	C99.3,168.5,96.2,165.4,92.2,165.4"/>
<path fill="#231F20" d="M59.4,165.4c-3.3,0-6.1,2.3-6.9,5.4c4.2,2.1,8.5,3.8,13,5.3c0.6-1.1,1-2.3,1-3.6
	C66.5,168.5,63.3,165.4,59.4,165.4"/>
<path fill="#231F20" d="M125.1,165.4c-3.9,0-7.1,3.2-7.1,7.1c0,1.3,0.4,2.5,1,3.6c4.5-1.4,8.8-3.2,13-5.3
	C131.2,167.7,128.4,165.4,125.1,165.4"/>
<path fill="#231F20" d="M108.7,149c-3.9,0-7.1,3.2-7.1,7.1c0,3.9,3.2,7.1,7.1,7.1c3.9,0,7.1-3.2,7.1-7.1
	C115.8,152.2,112.6,149,108.7,149"/>
<path fill="#231F20" d="M75.8,149c-3.9,0-7.1,3.2-7.1,7.1c0,3.9,3.2,7.1,7.1,7.1c3.9,0,7.1-3.2,7.1-7.1
	C82.9,152.2,79.7,149,75.8,149"/>
<path fill="#231F20" d="M43,149c-3.9,0-7.1,3.2-7.1,7.1c0,3.9,3.2,7.1,7.1,7.1s7.1-3.2,7.1-7.1C50.1,152.2,46.9,149,43,149"/>
<path fill="#231F20" d="M141.5,149c-3.9,0-7.1,3.2-7.1,7.1c0,3.9,3.2,7.1,7.1,7.1c3.9,0,7.1-3.2,7.1-7.1
	C148.6,152.2,145.4,149,141.5,149"/>
<path fill="#231F20" d="M92.2,132.7c-3.9,0-7.1,3.2-7.1,7.1c0,3.9,3.2,7.1,7.1,7.1c3.9,0,7.1-3.2,7.1-7.1
	C99.3,135.9,96.2,132.7,92.2,132.7"/>
<path fill="#231F20" d="M59.4,132.7c-3.9,0-7.1,3.2-7.1,7.1c0,3.9,3.2,7.1,7.1,7.1c3.9,0,7.1-3.2,7.1-7.1
	C66.5,135.9,63.3,132.7,59.4,132.7"/>
<path fill="#231F20" d="M26.5,132.7c-3.9,0-7.1,3.2-7.1,7.1c0,3.9,3.2,7.1,7.1,7.1c3.9,0,7.1-3.2,7.1-7.1
	C33.6,135.9,30.5,132.7,26.5,132.7"/>
<path fill="#231F20" d="M125.1,132.7c-3.9,0-7.1,3.2-7.1,7.1c0,3.9,3.2,7.1,7.1,7.1c3.9,0,7.1-3.2,7.1-7.1
	C132.2,135.9,129,132.7,125.1,132.7"/>
<path fill="#231F20" d="M157.9,132.7c-3.9,0-7.1,3.2-7.1,7.1c0,3.9,3.2,7.1,7.1,7.1c3.9,0,7.1-3.2,7.1-7.1
	C165,135.9,161.9,132.7,157.9,132.7"/>
<path fill="#231F20" d="M108.7,116.4c-3.9,0-7.1,3.2-7.1,7.1c0,3.9,3.2,7.1,7.1,7.1c3.9,0,7.1-3.2,7.1-7.1
	C115.8,119.6,112.6,116.4,108.7,116.4"/>
<path fill="#231F20" d="M75.8,116.4c-3.9,0-7.1,3.2-7.1,7.1c0,3.9,3.2,7.1,7.1,7.1c3.9,0,7.1-3.2,7.1-7.1
	C82.9,119.6,79.7,116.4,75.8,116.4"/>
<path fill="#231F20" d="M43,116.4c-3.9,0-7.1,3.2-7.1,7.1c0,3.9,3.2,7.1,7.1,7.1s7.1-3.2,7.1-7.1C50.1,119.6,46.9,116.4,43,116.4"/>
<path fill="#231F20" d="M141.5,116.4c-3.9,0-7.1,3.2-7.1,7.1c0,3.9,3.2,7.1,7.1,7.1c3.9,0,7.1-3.2,7.1-7.1
	C148.6,119.6,145.4,116.4,141.5,116.4"/>
<path fill="#231F20" d="M167.2,123.5c0,3.2,2.2,5.9,5.1,6.8c2.1-4.2,3.8-8.6,5.2-13.1c-1-0.5-2-0.8-3.2-0.8
	C170.4,116.4,167.2,119.6,167.2,123.5"/>
<path fill="#231F20" d="M108.7,83.7c-3.9,0-7.1,3.2-7.1,7.1c0,3.9,3.2,7.1,7.1,7.1c3.9,0,7.1-3.2,7.1-7.1
	C115.8,86.9,112.6,83.7,108.7,83.7"/>
<path fill="#231F20" d="M75.8,83.7c-3.9,0-7.1,3.2-7.1,7.1c0,3.9,3.2,7.1,7.1,7.1c3.9,0,7.1-3.2,7.1-7.1
	C82.9,86.9,79.7,83.7,75.8,83.7"/>
<path fill="#231F20" d="M43,83.7c-3.9,0-7.1,3.2-7.1,7.1c0,3.9,3.2,7.1,7.1,7.1s7.1-3.2,7.1-7.1C50.1,86.9,46.9,83.7,43,83.7"/>
<path fill="#231F20" d="M17.2,123.5c0-3.9-3.2-7.1-7.1-7.1c-1.2,0-2.2,0.3-3.2,0.8c1.4,4.5,3.2,8.9,5.2,13.1
	C15.1,129.4,17.2,126.7,17.2,123.5"/>
<path fill="#231F20" d="M10.1,83.7c-3.9,0-7.1,3.2-7.1,7.1c0,3.9,3.2,7.1,7.1,7.1c3.9,0,7.1-3.2,7.1-7.1
	C17.2,86.9,14,83.7,10.1,83.7"/>
<path fill="#231F20" d="M17.2,58.2c0-3.2-2.1-5.9-5.1-6.8c-2.1,4.2-3.8,8.6-5.2,13.1c1,0.5,2,0.8,3.2,0.8
	C14,65.3,17.2,62.1,17.2,58.2"/>
<path fill="#231F20" d="M141.5,83.7c-3.9,0-7.1,3.2-7.1,7.1c0,3.9,3.2,7.1,7.1,7.1c3.9,0,7.1-3.2,7.1-7.1
	C148.6,86.9,145.4,83.7,141.5,83.7"/>
<path fill="#231F20" d="M174.4,97.9c3.9,0,7.1-3.2,7.1-7.1c0-3.9-3.2-7.1-7.1-7.1c-3.9,0-7.1,3.2-7.1,7.1
	C167.2,94.7,170.4,97.9,174.4,97.9"/>
<path fill="#231F20" d="M108.7,18.4c-3.9,0-7.1,3.2-7.1,7.1c0,3.9,3.2,7.1,7.1,7.1c3.9,0,7.1-3.2,7.1-7.1
	C115.8,21.6,112.6,18.4,108.7,18.4"/>
<path fill="#231F20" d="M75.8,18.4c-3.9,0-7.1,3.2-7.1,7.1c0,3.9,3.2,7.1,7.1,7.1c3.9,0,7.1-3.2,7.1-7.1
	C82.9,21.6,79.7,18.4,75.8,18.4"/>
<path fill="#231F20" d="M43,18.4c-3.9,0-7.1,3.2-7.1,7.1c0,3.9,3.2,7.1,7.1,7.1s7.1-3.2,7.1-7.1C50.1,21.6,46.9,18.4,43,18.4"/>
<path fill="#231F20" d="M141.5,18.4c-3.9,0-7.1,3.2-7.1,7.1c0,3.9,3.2,7.1,7.1,7.1c3.9,0,7.1-3.2,7.1-7.1
	C148.6,21.6,145.4,18.4,141.5,18.4"/>
<path fill="#231F20" d="M92.2,100c-3.9,0-7.1,3.2-7.1,7.1c0,3.9,3.2,7.1,7.1,7.1c3.9,0,7.1-3.2,7.1-7.1
	C99.3,103.2,96.2,100,92.2,100"/>
<path fill="#231F20" d="M59.4,100c-3.9,0-7.1,3.2-7.1,7.1c0,3.9,3.2,7.1,7.1,7.1c3.9,0,7.1-3.2,7.1-7.1
	C66.5,103.2,63.3,100,59.4,100"/>
<path fill="#231F20" d="M26.5,100c-3.9,0-7.1,3.2-7.1,7.1c0,3.9,3.2,7.1,7.1,7.1c3.9,0,7.1-3.2,7.1-7.1
	C33.6,103.2,30.5,100,26.5,100"/>
<path fill="#231F20" d="M125.1,100c-3.9,0-7.1,3.2-7.1,7.1c0,3.9,3.2,7.1,7.1,7.1c3.9,0,7.1-3.2,7.1-7.1
	C132.2,103.2,129,100,125.1,100"/>
<path fill="#231F20" d="M157.9,100c-3.9,0-7.1,3.2-7.1,7.1c0,3.9,3.2,7.1,7.1,7.1c3.9,0,7.1-3.2,7.1-7.1
	C165,103.2,161.9,100,157.9,100"/>
<path fill="#231F20" d="M108.7,51c-3.9,0-7.1,3.2-7.1,7.1c0,3.9,3.2,7.1,7.1,7.1c3.9,0,7.1-3.2,7.1-7.1
	C115.8,54.2,112.6,51,108.7,51"/>
<path fill="#231F20" d="M75.8,51c-3.9,0-7.1,3.2-7.1,7.1c0,3.9,3.2,7.1,7.1,7.1c3.9,0,7.1-3.2,7.1-7.1C82.9,54.2,79.7,51,75.8,51"/>
<path fill="#231F20" d="M43,51c-3.9,0-7.1,3.2-7.1,7.1c0,3.9,3.2,7.1,7.1,7.1s7.1-3.2,7.1-7.1C50.1,54.2,46.9,51,43,51"/>
<path fill="#231F20" d="M141.5,51c-3.9,0-7.1,3.2-7.1,7.1c0,3.9,3.2,7.1,7.1,7.1c3.9,0,7.1-3.2,7.1-7.1
	C148.6,54.2,145.4,51,141.5,51"/>
<path fill="#231F20" d="M167.2,58.2c0,3.9,3.2,7.1,7.1,7.1c1.2,0,2.2-0.3,3.2-0.8c-1.4-4.5-3.2-8.9-5.2-13.1
	C169.4,52.2,167.2,54.9,167.2,58.2"/>
</svg>
