<?xml version="1.0" encoding="utf-8"?>
<!-- Generator: Adobe Illustrator 18.1.1, SVG Export Plug-In . SVG Version: 6.00 Build 0)  -->
<!DOCTYPE svg PUBLIC "-//W3C//DTD SVG 1.1//EN" "http://www.w3.org/Graphics/SVG/1.1/DTD/svg11.dtd">
<svg version="1.1" id="Layer_1" xmlns="http://www.w3.org/2000/svg" xmlns:xlink="http://www.w3.org/1999/xlink" x="0px" y="0px"
	 viewBox="0 0 627 176" enable-background="new 0 0 627 176" xml:space="preserve">
<g>
	<defs>
		<rect id="SVGID_1_" width="627" height="176"/>
	</defs>
	<clipPath id="SVGID_2_">
		<use xlink:href="#SVGID_1_"  overflow="visible"/>
	</clipPath>
	<polyline clip-path="url(#SVGID_2_)" fill="#DEDFE0" points="17.2,25.6 17.2,49.8 7.5,49.8 7.5,3.5 17.2,3.5 17.2,24.6 30.4,3.5 
		41.8,3.5 27,24.9 43.5,49.8 31.2,49.8 17.2,25.6 	"/>
	<path clip-path="url(#SVGID_2_)" fill="#DEDFE0" d="M64.7,27.7c0-1.9-0.2-3.3-0.6-3.9c-0.4-0.7-1.2-1-2.4-1c-0.9,0-1.9,0.3-3,0.8
		c-1.1,0.6-2.2,1.3-3.2,2.2v24h-8.9V25.1c0-3-0.4-5.6-1.2-8l7.9-2.3c0.8,1.4,1.3,2.8,1.3,4.3c0.7-0.5,1.3-0.9,1.9-1.3
		c0.6-0.4,1.3-0.8,2-1.2c0.9-0.5,1.9-0.9,2.9-1.1c1.1-0.2,2.1-0.4,3.1-0.4c1.9,0,3.6,0.5,5.1,1.4c1.5,0.9,2.5,2.1,3,3.6
		c0.4,1.2,0.7,2.8,0.7,4.9v24.9h-8.7V27.7"/>
	<path clip-path="url(#SVGID_2_)" fill="#DEDFE0" d="M89.2,10.2c-1.1,1.1-2.4,1.6-3.9,1.6c-1.5,0-2.8-0.5-3.9-1.6
		c-1.1-1.1-1.6-2.4-1.6-3.9c0-1.6,0.5-2.9,1.6-3.9c1.1-1.1,2.4-1.6,4-1.6c1.5,0,2.8,0.5,3.8,1.6c1,1.1,1.6,2.4,1.6,3.9
		C90.8,7.8,90.3,9.1,89.2,10.2 M80.8,16.3l9-1.4v34.9h-9V16.3z"/>
	<path clip-path="url(#SVGID_2_)" fill="#DEDFE0" d="M128.3,21.3c-1,0.4-2.1,0.6-3.3,0.6c-0.4,0-0.9,0-1.3-0.1c-0.4,0-0.8-0.1-1-0.1
		c0.7,0.8,1.2,1.6,1.5,2.5c0.3,0.9,0.5,1.9,0.5,3.1c0,1.5-0.3,2.8-0.9,4.1c-0.6,1.2-1.5,2.3-2.7,3.2c-1.1,0.9-2.5,1.6-4,2.1
		c-1.5,0.5-3.2,0.8-5.1,0.8H111c-0.1,0-0.2,0-0.4-0.1c-1.2,0.5-2,1-2.7,1.4c-0.6,0.4-0.9,0.9-0.9,1.4c0,0.5,0.5,0.8,1.5,0.8l4.8,0.1
		c2.6,0,4.6,0.3,6.2,0.7c1.5,0.4,2.9,1.2,4.1,2.3c1.9,1.8,2.9,4.2,2.9,7.3c0,2.8-0.9,5.1-2.7,7.1c-1.5,1.6-3.5,2.7-5.8,3.4
		c-2.4,0.7-4.9,1-7.6,1c-2.4,0-4.8-0.3-7.1-0.8c-2.3-0.5-4.2-1.5-5.8-2.9c-1.9-1.7-2.8-3.8-2.8-6.1c0-0.9,0.1-1.7,0.3-2.2
		c0.2-0.5,0.4-0.9,0.5-1.3h8.3c-0.2,0.4-0.3,0.8-0.3,1.1c0,0.3-0.1,0.7-0.1,1.2c0,2.9,2.1,4.3,6.4,4.3c1.2,0,2.2-0.1,3.1-0.2
		c0.9-0.2,1.8-0.5,2.5-0.9c0.7-0.4,1.2-0.9,1.6-1.5c0.4-0.6,0.6-1.3,0.6-2c0-1.6-0.6-2.6-1.8-3.2c-1.2-0.6-2.7-0.9-4.5-0.9l-3.8-0.1
		c-4-0.1-6.7-0.4-8.2-1.1c-0.8-0.3-1.4-0.8-1.9-1.6c-0.5-0.8-0.7-1.7-0.7-2.9c0-0.5,0.1-1.1,0.2-1.6c0.1-0.5,0.4-1,0.8-1.5
		c0.4-0.5,1-1,1.9-1.4c0.8-0.4,1.9-0.8,3.4-1.2c-4.9-1.3-7.3-4.4-7.3-9.5c0-1.7,0.3-3.3,1-4.7c0.7-1.4,1.7-2.6,2.9-3.6
		c1.2-1,2.8-1.8,4.6-2.3c1.8-0.6,3.8-0.8,6-0.8c1,0,1.9,0.1,2.9,0.2c0.9,0.1,2,0.4,3.3,0.7c0.9,0.2,1.7,0.4,2.4,0.5
		c0.6,0.1,1.3,0.2,1.8,0.2c1.2,0,2.5-0.3,3.7-0.8c1.2-0.5,2.3-1.2,3.4-2.2l3.7,5.7C130.3,20.3,129.3,20.9,128.3,21.3 M113.9,23
		c-1-0.9-2.3-1.3-4-1.3c-1.7,0-3,0.4-3.9,1.3c-0.9,0.9-1.4,2.1-1.4,3.7c0,1.7,0.5,2.9,1.5,3.7c1,0.7,2.2,1.1,3.8,1.1
		c3.6,0,5.5-1.6,5.5-4.8C115.3,25.1,114.9,23.9,113.9,23z"/>
	<path clip-path="url(#SVGID_2_)" fill="#DEDFE0" d="M153.8,26.7c0-1.7-0.3-2.9-0.8-3.6c-0.5-0.7-1.4-1.1-2.7-1.1
		c-1.1,0-2.3,0.3-3.6,0.9c-1.3,0.6-2.5,1.4-3.5,2.2v24.6h-9V10.3c0-1.6-0.1-3.1-0.2-4.6c-0.1-1.4-0.3-2.5-0.5-3.2l9.1-2.1
		c0.2,0.9,0.4,2.1,0.5,3.6c0.1,1.5,0.1,3.1,0.1,4.7v6.8c0,0.5,0,1.1-0.1,1.7c0,0.6-0.1,1-0.1,1.2c1.2-1.1,2.6-2,4.4-2.7
		c1.8-0.7,3.5-1,5.3-1c2.2,0,4.1,0.4,5.7,1.3c1.6,0.9,2.7,2.1,3.2,3.6c0.2,0.5,0.3,0.9,0.4,1.4c0.1,0.4,0.2,0.9,0.3,1.3
		c0.1,0.5,0.1,1,0.1,1.6c0,0.6,0,1.3,0,2.1v23.8h-8.7V26.7"/>
	<path clip-path="url(#SVGID_2_)" fill="#DEDFE0" d="M180.1,50.6c-2.3,0-4.3-0.5-6-1.4c-1.7-0.9-2.8-2.1-3.3-3.6
		c-0.1-0.4-0.2-0.7-0.3-1s-0.1-0.6-0.2-1c0-0.4,0-0.8-0.1-1.3c0-0.5,0-1.2,0-2V21.9h-3.4v-6.1h3.4c0-1.7,0-3.1,0-4.3
		c0-1.2,0.1-2.4,0.3-3.7l9.2-2.3c-0.2,1.6-0.3,3.2-0.4,5c-0.1,1.8-0.1,3.6-0.1,5.3h8l-2.3,6.1h-5.7v16.9c0,1.1,0.1,1.9,0.2,2.6
		c0.1,0.7,0.3,1.3,0.6,1.7c0.3,0.4,0.7,0.7,1.2,0.9c0.5,0.2,1.1,0.2,1.9,0.2c0.4,0,0.8-0.1,1.3-0.2c0.5-0.1,1.1-0.3,1.9-0.5l1.1,5.4
		C184.9,50,182.4,50.6,180.1,50.6"/>
	<rect x="187.6" y="27.7" clip-path="url(#SVGID_2_)" fill="#DEDFE0" width="16" height="7.7"/>
	<path clip-path="url(#SVGID_2_)" fill="#DEDFE0" d="M244.7,25.1c-0.1-1.5-0.2-2.8-0.2-4c-0.1-1.2-0.1-2.5-0.1-3.7
		c-0.3,1.3-0.5,2.5-0.8,3.5c-0.2,1-0.6,2.2-1,3.6l-7.3,25.3h-8l-6.6-24.3c-0.3-1.2-0.6-2.5-1-3.9c-0.4-1.5-0.6-2.8-0.9-4.1
		c0,1.3,0,2.7-0.1,4c0,1.4-0.1,2.8-0.2,4.2l-1.6,24.2h-9.3L212,3.5h11.9l6.1,23.2c0.2,0.8,0.4,1.6,0.6,2.2c0.2,0.6,0.3,1.2,0.4,1.8
		c0.1,0.6,0.2,1.1,0.3,1.6c0.1,0.5,0.2,1.1,0.3,1.7c0.2-1.2,0.5-2.4,0.7-3.6c0.3-1.2,0.6-2.6,0.9-3.9l6.3-23h11.9l4.1,46.3h-9.1
		L244.7,25.1"/>
	<path clip-path="url(#SVGID_2_)" fill="#DEDFE0" d="M289.5,40.1c-0.7,2.1-1.8,4-3.2,5.7c-1.3,1.5-2.8,2.6-4.6,3.5s-4,1.3-6.6,1.3
		c-2.3,0-4.4-0.4-6.3-1.3s-3.5-2-4.8-3.6c-1.3-1.5-2.4-3.4-3.1-5.6c-0.7-2.2-1.1-4.6-1.1-7.3s0.4-5.1,1.1-7.3
		c0.7-2.2,1.8-4.1,3.1-5.7c1.3-1.6,2.9-2.8,4.8-3.6c1.9-0.8,4-1.3,6.3-1.3c4.8,0,8.7,1.7,11.6,5.1c1.4,1.6,2.4,3.4,3,5.3
		s0.9,4.3,0.9,7.1C290.6,35.5,290.2,38,289.5,40.1 M279.1,23.5c-0.9-1.2-2.2-1.8-3.9-1.8c-1.1,0-2,0.3-2.8,0.9
		c-0.8,0.6-1.4,1.5-1.8,2.5c-0.3,0.9-0.5,1.9-0.7,3.2c-0.2,1.2-0.2,2.7-0.2,4.4c0,3.9,0.4,6.7,1.1,8.6c0.4,0.9,1,1.6,1.9,2.1
		c0.9,0.5,1.7,0.7,2.6,0.7c2,0,3.4-0.9,4.3-2.7c0.8-1.8,1.3-4.7,1.3-8.8C280.9,28,280.3,25,279.1,23.5z"/>
	<polyline clip-path="url(#SVGID_2_)" fill="#DEDFE0" points="292.9,49.8 292.9,44.3 308.9,22.1 294.2,22.1 294.2,15.8 319.5,15.8 
		319.5,21.9 304.5,43.4 320.1,43.4 318,49.8 292.9,49.8 	"/>
	<path clip-path="url(#SVGID_2_)" fill="#DEDFE0" d="M333.1,10.2c-1.1,1.1-2.4,1.6-3.9,1.6c-1.5,0-2.8-0.5-3.9-1.6
		c-1.1-1.1-1.6-2.4-1.6-3.9c0-1.6,0.5-2.9,1.6-3.9c1.1-1.1,2.4-1.6,4-1.6c1.5,0,2.8,0.5,3.8,1.6c1,1.1,1.6,2.4,1.6,3.9
		C334.7,7.8,334.2,9.1,333.1,10.2 M324.7,16.3l9-1.4v34.9h-9V16.3z"/>
	<path clip-path="url(#SVGID_2_)" fill="#DEDFE0" d="M349.8,50.6c-1.9,0-3.5-0.4-4.9-1.3c-1.4-0.8-2.4-2-2.9-3.4
		c-0.2-0.4-0.3-0.9-0.4-1.3c-0.1-0.4-0.2-0.9-0.2-1.4c-0.1-0.5-0.1-1.2-0.1-2c0-0.8,0-1.8,0-3V12.8c0-2.3,0-4.2-0.1-5.7
		c-0.1-1.5-0.2-3-0.4-4.6l9-2.1c0.2,0.9,0.3,2,0.4,3.3c0.1,1.3,0.1,3.1,0.1,5.5v26.6c0,1.5,0,2.6,0,3.5c0,0.9,0,1.6,0.1,2.1
		c0,0.5,0.1,0.9,0.2,1.2c0.1,0.3,0.2,0.5,0.3,0.7c0.4,0.6,1,0.9,1.8,0.9h0.5c0.1,0,0.3,0,0.5-0.1l1.5,5.3
		C353.5,50.3,351.7,50.6,349.8,50.6"/>
	<path clip-path="url(#SVGID_2_)" fill="#DEDFE0" d="M366.9,50.6c-1.9,0-3.5-0.4-4.9-1.3c-1.4-0.8-2.4-2-2.9-3.4
		c-0.2-0.4-0.3-0.9-0.4-1.3c-0.1-0.4-0.2-0.9-0.2-1.4c-0.1-0.5-0.1-1.2-0.1-2c0-0.8,0-1.8,0-3V12.8c0-2.3,0-4.2-0.1-5.7
		c-0.1-1.5-0.2-3-0.4-4.6l9-2.1c0.2,0.9,0.3,2,0.4,3.3c0.1,1.3,0.1,3.1,0.1,5.5v26.6c0,1.5,0,2.6,0,3.5c0,0.9,0,1.6,0.1,2.1
		c0,0.5,0.1,0.9,0.2,1.2c0.1,0.3,0.2,0.5,0.3,0.7c0.4,0.6,1,0.9,1.8,0.9h0.5c0.1,0,0.3,0,0.5-0.1l1.5,5.3
		C370.6,50.3,368.8,50.6,366.9,50.6"/>
</g>
<g>
	<defs>
		<rect id="SVGID_3_" x="0.1" y="0.4" width="626.3" height="175.6"/>
	</defs>
	<clipPath id="SVGID_4_">
		<use xlink:href="#SVGID_3_"  overflow="visible"/>
	</clipPath>
	<g clip-path="url(#SVGID_4_)">
		<defs>
			<rect id="SVGID_5_" width="627" height="176"/>
		</defs>
		<clipPath id="SVGID_6_">
			<use xlink:href="#SVGID_5_"  overflow="visible"/>
		</clipPath>
		<path clip-path="url(#SVGID_6_)" fill="#DEDFE0" d="M396.6,49.8c-0.9-0.7-1.5-1.5-2-2.4c-0.4,0.4-0.7,0.7-1,1
			c-0.3,0.3-0.7,0.6-1,0.8c-1.7,1.2-4,1.9-6.8,1.9c-3.8,0-6.7-0.9-8.7-2.7c-2-1.8-2.9-4.5-2.9-8c0-4.1,1.4-7,4.1-8.9
			c2.7-1.9,6.8-2.8,12.3-2.8h1c0.4,0,0.8,0,1,0.1v-1.4c0-1.9-0.3-3.2-0.8-3.9c-0.5-0.7-1.6-1.1-3.2-1.1c-1.4,0-3,0.3-4.6,1
			c-1.6,0.7-3.4,1.6-5.3,2.9l-3.8-6.4c0.9-0.6,1.7-1.1,2.5-1.5c0.8-0.4,1.8-0.8,3-1.3c1.7-0.7,3.3-1.2,4.8-1.5
			c1.5-0.3,3-0.5,4.6-0.5c2.9,0,5.3,0.5,7.1,1.5s3.1,2.5,3.7,4.4c0.2,0.5,0.4,1,0.5,1.6c0.1,0.6,0.1,1.3,0.1,2.2V27l-0.2,11.5
			c0,0.9,0,1.7,0.1,2.4s0.2,1.3,0.4,1.9c0.2,0.6,0.5,1.1,1,1.6c0.4,0.5,1,1.1,1.8,1.6l-4.7,5.5C398.4,51.1,397.4,50.5,396.6,49.8
			 M385.5,35.9c-1.2,0.7-1.8,2.1-1.8,4.1c0,1.3,0.4,2.4,1.1,3.2c0.7,0.8,1.6,1.2,2.8,1.2c1.7,0,3.3-0.8,4.6-2.3l0.1-7.2h-0.4
			C388.9,34.9,386.7,35.2,385.5,35.9z"/>
		<path clip-path="url(#SVGID_6_)" fill="#FFFFFF" d="M13.1,81.8c8-7.9,18-12.2,29.6-12.2c11.8,0,22,4.1,30.3,12.3
			c8.5,8.4,12.9,18.9,12.9,30.9c0,12.1-3.8,22.1-11.1,30.1c-8.6,9.3-19.4,14.2-32.1,14.2c-12.5,0-23.3-4.9-31.8-14.4
			C3.8,134.7,0,124.4,0,112.8C0,101.1,4.5,90.3,13.1,81.8 M21.2,135.5c5.8,6,13.7,9.5,21.5,9.5c17.4,0,30.5-14,30.5-32.3
			c0-7.7-2.8-14.9-8.3-20.8c-6.3-6.7-13.3-10.1-22.2-10.1c-7.9,0-15.3,3.1-20.8,8.8c-5.9,6-9.3,14.3-9.3,22.4
			C12.5,121.8,15.7,129.9,21.2,135.5z"/>
	</g>
</g>
<g>
	<defs>
		<rect id="SVGID_7_" width="627" height="176"/>
	</defs>
	<clipPath id="SVGID_8_">
		<use xlink:href="#SVGID_7_"  overflow="visible"/>
	</clipPath>
	<path clip-path="url(#SVGID_8_)" fill="#FFFFFF" d="M100.6,102.3h-8.9V91.4h20.2v8.2c5.7-6.4,12.9-9.5,22-9.5
		c9,0,16.8,3.3,23.2,9.6c6.4,6.4,9.8,14.7,9.8,23.8c0,9.1-3.4,17.4-9.8,23.8c-6.4,6.3-14.2,9.6-23.2,9.6c-9.3,0-16.3-3-21.9-9.3V165
		h9.6v11H91.3v-11h9.2V102.3 M133.3,145.7c11.8,0,21.7-9.7,21.7-22.2c0-12.5-9.8-22.4-21.7-22.4c-12.7,0-21.5,9.5-21.5,22.4
		C111.8,136.4,120.7,145.7,133.3,145.7z"/>
	<path clip-path="url(#SVGID_8_)" fill="#FFFFFF" d="M206.5,157.1c-9,0-17.4-3.4-23.8-9.8c-6.4-6.4-9.9-14.8-9.9-23.8
		c0-9,3.6-17.4,9.9-23.8c6.4-6.4,14.8-9.8,23.8-9.8c11.4,0,21.7,5.4,27.9,14.9c3.8,5.7,5.6,11.8,5.6,18.6c0,1.5-0.1,3.1-0.2,4.6
		h-54.5c2.6,11,11.2,17.7,21.3,17.7c7.5,0,13.8-3.7,18.5-10.6H238C232.6,148.9,220.5,157.1,206.5,157.1 M227.2,117.2
		c-3-10.1-11-16.1-20.7-16.1c-9.7,0-17.5,5.9-20.8,16.1H227.2z"/>
	<path clip-path="url(#SVGID_8_)" fill="#FFFFFF" d="M253.3,102.3h-9V91.4h20v9.2c4.1-7,10.4-10.3,18.9-10.3
		c7.1,0,13.4,2.6,17.6,6.9c6.3,6.3,7.5,12.4,7.5,21.9v25.3h9.1v11h-29.3v-11h8.8v-22c0-14.4-3.4-21.1-15.5-21.1
		c-10.5,0-16.6,7.3-16.6,21.3v21.8h8.8v11h-29.5v-11h9.2V102.3"/>
	<polyline clip-path="url(#SVGID_8_)" fill="#FFFFFF" points="357.3,144.2 357.3,155.4 325.5,155.4 325.5,144.2 335.3,144.2 
		335.3,82.3 325.5,82.3 325.5,71.3 347.7,71.3 388.8,134.6 388.8,82.3 378.8,82.3 378.8,71.3 410.7,71.3 410.7,82.3 400.8,82.3 
		400.8,155.4 388.9,155.4 347.4,90.1 347.4,144.2 357.3,144.2 	"/>
	<path clip-path="url(#SVGID_8_)" fill="#FFFFFF" d="M442.4,157.1c-9,0-17.4-3.4-23.8-9.8c-6.4-6.4-9.9-14.8-9.9-23.8
		c0-9,3.6-17.4,9.9-23.8c6.4-6.4,14.8-9.8,23.8-9.8c11.4,0,21.7,5.4,27.9,14.9c3.8,5.7,5.6,11.8,5.6,18.6c0,1.5-0.1,3.1-0.2,4.6
		h-54.5c2.6,11,11.2,17.7,21.3,17.7c7.5,0,13.8-3.7,18.5-10.6H474C468.5,148.9,456.5,157.1,442.4,157.1 M463.1,117.2
		c-3-10.1-11-16.1-20.7-16.1c-9.7,0-17.5,5.9-20.8,16.1H463.1z"/>
	<polyline clip-path="url(#SVGID_8_)" fill="#FFFFFF" points="484.3,102.3 476.7,102.3 476.7,91.4 505.7,91.4 505.7,102.3 
		496,102.3 507.8,137.8 523.3,91.4 530.2,91.4 545.7,137.8 557.5,102.3 547.8,102.3 547.8,91.4 576.8,91.4 576.8,102.3 569.2,102.3 
		550.7,155.4 541.3,155.4 526.7,114 512.2,155.4 502.8,155.4 484.3,102.3 	"/>
	<path clip-path="url(#SVGID_8_)" fill="#FFFFFF" d="M593,134.7c0,0.1,0,0.1,0,0.2c0,6.7,4.6,11.4,10.9,11.4
		c6.6,0,10.6-3.3,10.6-8.5c0-5.7-3.1-7.7-10.2-9.7c-7.2-2.1-12.3-3.3-14.9-5c-5.6-3.5-8.2-8.2-8.2-14.6c0-10.8,7.9-18.6,19.2-18.6
		c4.9,0,9,1.7,12.4,5v-3.6h9.8V108h-11.1c-0.7-5.1-4.3-8.2-9.7-8.2c-5.6,0-9.1,3.5-9.1,7.8c0,7,6.5,7,17.4,10.5
		c11.2,3.7,16.2,8.6,16.2,18.9c0,11.5-8.4,19.8-20.7,19.8c-5.9,0-10.4-1.7-14.2-5.6v4.1h-10.6v-20.7H593"/>
</g>
</svg>
